<?xml version="1.0" standalone="yes"?>
<svg xmlns="http://www.w3.org/2000/svg" width="180" height="180">
<path style="fill:#020102; stroke:none;" d="M0 0L0 180L180 180L180 0L0 0z"/>
<path style="fill:#5a015c; stroke:none;" d="M164.667 24.3333L165.333 24.6667L164.667 24.3333M162 25L161 27L162 25z"/>
<path style="fill:#6c01bc; stroke:none;" d="M139 45L143 42L152 55L152 56L147 61C158.597 52.8082 165.398 39.0129 166 25C156.647 27.1978 144.757 37.4781 139 45z"/>
<path style="fill:#5a015c; stroke:none;" d="M158 28L159 29L158 28M165 30L165 33L166 33L165 30M154 31L155 32L154 31M111.667 32.3333L112.333 32.6667L111.667 32.3333M153 32L154 33L153 32z"/>
<path style="fill:#6c01bc; stroke:none;" d="M110 33L109 35L110 33z"/>
<path style="fill:#b101cd; stroke:none;" d="M93 38L91 55L105 58C109.174 53.008 117.764 45.48 116.458 38.0193C115.142 30.496 97.6791 35.5473 93 38z"/>
<path style="fill:#5a015c; stroke:none;" d="M114 33L115 34L114 33M115 34L116 35L115 34M150 34L151 35L150 34M96 35L97 36L96 35z"/>
<path style="fill:#6c01bc; stroke:none;" d="M97.6667 35.3333L98.3333 35.6667L97.6667 35.3333M104 35L105 36L104 35z"/>
<path style="fill:#5a015c; stroke:none;" d="M105 35L105 36L108 36L105 35M116 35L117 36L116 35M149 35L150 36L149 35M94 36L95 37L94 36z"/>
<path style="fill:#6c01bc; stroke:none;" d="M95 36L96 37L95 36M116 36L117 37L116 36z"/>
<path style="fill:#5a015c; stroke:none;" d="M148 36L149 37L148 36M164 36L165 37L164 36M93 37L94 38L93 37M117 37L117 41L118 41L117 37M92 38L92 41L93 41L92 38z"/>
<path style="fill:#6c01bc; stroke:none;" d="M92 39L93 40L92 39z"/>
<path style="fill:#5a015c; stroke:none;" d="M144 39L145 40L144 39M163 39L164 40L163 39z"/>
<path style="fill:#6c01bc; stroke:none;" d="M93 40L94 41L93 40z"/>
<path style="fill:#5a015c; stroke:none;" d="M143 40L144 41L143 40z"/>
<path style="fill:#6c01bc; stroke:none;" d="M116 41L117 42L116 41z"/>
<path style="fill:#5a015c; stroke:none;" d="M162 41L163 42L162 41M116 42L117 43L116 42z"/>
<path style="fill:#b101cd; stroke:none;" d="M142 42L114 63C117.064 74.9129 121.651 80.9373 120 94L135 94L129 88C137.109 87.9991 144.826 87.2823 151.999 83.1204C153.784 82.085 159.583 78.7491 157.11 76.0093C151.449 69.7399 133.362 74.6009 126 73L126 71C135.747 68.1932 144.685 62.9808 152 56L152 55L142 42z"/>
<path style="fill:#5a015c; stroke:none;" d="M115 43L116 44L115 43M139 43L140 44L139 43M161 43L162 44L161 43M92.3333 44.6667L92.6667 45.3333L92.3333 44.6667M114 44L115 45L114 44M138 44L139 45L138 44M137 45L138 46L137 45M160 45L161 46L160 45M91 46L92 47L91 46M113.333 46.6667L113.667 47.3333L113.333 46.6667z"/>
<path style="fill:#6c01bc; stroke:none;" d="M136 46L137 47L136 46z"/>
<path style="fill:#5a015c; stroke:none;" d="M90 47L91 48L90 47M134 47L135 48L134 47z"/>
<path style="fill:#6c01bc; stroke:none;" d="M135 47L136 48L135 47z"/>
<path style="fill:#5a015c; stroke:none;" d="M66 48L65 50L66 48z"/>
<path style="fill:#6c01bc; stroke:none;" d="M67 48L65 51L69 50L67 48z"/>
<path style="fill:#5a015c; stroke:none;" d="M68 48L69 49L68 48M89 48L90 49L89 48M133 48L134 49L133 48M158 48L159 49L158 48z"/>
<path style="fill:#b101cd; stroke:none;" d="M67 49L66 53L69 50L67 49z"/>
<path style="fill:#5a015c; stroke:none;" d="M90 49L90 52L91 52L90 49M112.333 49.6667L112.667 50.3333L112.333 49.6667M132 49L133 50L132 49z"/>
<path style="fill:#6c01bc; stroke:none;" d="M131 50L132 51L131 50z"/>
<path style="fill:#5a015c; stroke:none;" d="M65 51L66 52L65 51z"/>
<path style="fill:#de0193; stroke:none;" d="M68 51L69 57L68 51z"/>
<path style="fill:#5a015c; stroke:none;" d="M69 51L70 52L69 51z"/>
<path style="fill:#6c01bc; stroke:none;" d="M111 51L112 52L111 51z"/>
<path style="fill:#5a015c; stroke:none;" d="M129 51L130 52L129 51z"/>
<path style="fill:#6c01bc; stroke:none;" d="M130 51L131 52L130 51z"/>
<path style="fill:#5a015c; stroke:none;" d="M156 51L157 52L156 51z"/>
<path style="fill:#b101cd; stroke:none;" d="M69 52L70 53L69 52z"/>
<path style="fill:#6c01bc; stroke:none;" d="M90 52L91 53L90 52z"/>
<path style="fill:#5a015c; stroke:none;" d="M128 52L129 53L128 52M155 52L156 53L155 52M66 53L66 59L67 59L66 53M70.3333 53.6667L70.6667 54.3333L70.3333 53.6667M90 53L90 57L91 57L90 53z"/>
<path style="fill:#6c01bc; stroke:none;" d="M109 53L110 54L109 53z"/>
<path style="fill:#5a015c; stroke:none;" d="M127 53L128 54L127 53z"/>
<path style="fill:#de0193; stroke:none;" d="M91 55L91 56C104 58.0559 91.6389 67.4585 87.7539 72.0046C86.0331 74.0182 83.2438 78.8552 80.0656 78.3688C75.5116 77.6719 72.7145 67.6049 71 64L70 64C70.9217 75.2839 74.0156 92.716 87 84C89.8614 91.6768 91.51 98.8615 90 107C80.4554 103.506 71.2886 92.6955 64 105C81.3007 113.606 89.1918 115.377 108 110C106.521 105.335 105.006 99.9223 106.434 95.0239C108.729 87.1496 114.545 95.2467 116 99C127.017 91.283 119.199 72.6363 114 64C108.964 64.4257 106.956 61.7226 106 57L91 55z"/>
<path style="fill:#5a015c; stroke:none;" d="M107.667 54.3333L108.333 54.6667L107.667 54.3333z"/>
<path style="fill:#6c01bc; stroke:none;" d="M126 54L127 55L126 54z"/>
<path style="fill:#b101cd; stroke:none;" d="M67 55L68 62L69 62L71 55L67 55z"/>
<path style="fill:#6c01bc; stroke:none;" d="M106 55L107 56L106 55z"/>
<path style="fill:#5a015c; stroke:none;" d="M124 55L125 56L124 55M71 56L72 57L71 56z"/>
<path style="fill:#b101cd; stroke:none;" d="M91.6667 56.3333L92.3333 56.6667L91.6667 56.3333z"/>
<path style="fill:#6c01bc; stroke:none;" d="M93 56L94 57L93 56z"/>
<path style="fill:#5a015c; stroke:none;" d="M94 56L95 57L94 56z"/>
<path style="fill:#b101cd; stroke:none;" d="M95 56L96 57L95 56z"/>
<path style="fill:#5a015c; stroke:none;" d="M106.333 56.6667L106.667 57.3333L106.333 56.6667M123 56L124 57L123 56z"/>
<path style="fill:#6c01bc; stroke:none;" d="M71 57L70 63L71 63L71 57z"/>
<path style="fill:#b101cd; stroke:none;" d="M96 57L97 58L96 57z"/>
<path style="fill:#6c01bc; stroke:none;" d="M122 57L123 58L122 57z"/>
<path style="fill:#5a015c; stroke:none;" d="M96 58L97 59L96 58z"/>
<path style="fill:#b101cd; stroke:none;" d="M106 58L106 61L107 61L106 58z"/>
<path style="fill:#5a015c; stroke:none;" d="M120 58L121 59L120 58M150 58L151 59L150 58M71 59L72 60L71 59z"/>
<path style="fill:#b101cd; stroke:none;" d="M97 59L97 63L98 63L97 59z"/>
<path style="fill:#5a015c; stroke:none;" d="M119 59L120 60L119 59z"/>
<path style="fill:#6c01bc; stroke:none;" d="M67 60L68 61L67 60z"/>
<path style="fill:#5a015c; stroke:none;" d="M70.3333 60.6667L70.6667 61.3333L70.3333 60.6667M117 60L118 61L117 60z"/>
<path style="fill:#6c01bc; stroke:none;" d="M118 60L119 61L118 60z"/>
<path style="fill:#5a015c; stroke:none;" d="M67 61L68 62L67 61M107 61L108 62L107 61M116 61L117 62L116 61z"/>
<path style="fill:#6c01bc; stroke:none;" d="M145 61L146 62L145 61z"/>
<path style="fill:#5a015c; stroke:none;" d="M146 61L147 62L146 61M68.3333 62.6667L68.6667 63.3333L68.3333 62.6667z"/>
<path style="fill:#de0193; stroke:none;" d="M69 62L70 63L69 62z"/>
<path style="fill:#6c01bc; stroke:none;" d="M107 62L108 63L107 62z"/>
<path style="fill:#5a015c; stroke:none;" d="M114 62L115 63L114 62z"/>
<path style="fill:#6c01bc; stroke:none;" d="M115 62L116 63L115 62M144 62L145 63L144 62z"/>
<path style="fill:#b101cd; stroke:none;" d="M69 63L69 65L71 63L69 63z"/>
<path style="fill:#5a015c; stroke:none;" d="M108 63L109 64L108 63M113 63L114 64L113 63z"/>
<path style="fill:#6c01bc; stroke:none;" d="M142 63L143 64L142 63z"/>
<path style="fill:#5a015c; stroke:none;" d="M143 63L144 64L143 63M71 64L72 65L71 64M96 64L97 65L96 64z"/>
<path style="fill:#6c01bc; stroke:none;" d="M109 64L110 65L109 64z"/>
<path style="fill:#5a015c; stroke:none;" d="M110 64L111 65L110 64z"/>
<path style="fill:#6c01bc; stroke:none;" d="M111 64L112 65L111 64z"/>
<path style="fill:#b101cd; stroke:none;" d="M112 64L113 65L112 64z"/>
<path style="fill:#5a015c; stroke:none;" d="M141 64L142 65L141 64M69 65L69 68L70 68L69 65z"/>
<path style="fill:#b101cd; stroke:none;" d="M71 65L72 66L71 65z"/>
<path style="fill:#5a015c; stroke:none;" d="M93 65L94 66L93 65z"/>
<path style="fill:#b101cd; stroke:none;" d="M94.6667 65.3333L95.3333 65.6667L94.6667 65.3333z"/>
<path style="fill:#5a015c; stroke:none;" d="M139 65L140 66L139 65M72 66L73 67L72 66M92 66L93 67L92 66M137 66L138 67L137 66M91 67L92 68L91 67z"/>
<path style="fill:#6c01bc; stroke:none;" d="M134 67L135 68L134 67z"/>
<path style="fill:#5a015c; stroke:none;" d="M135 67L136 68L135 67z"/>
<path style="fill:#b101cd; stroke:none;" d="M70 68L71 69L70 68z"/>
<path style="fill:#5a015c; stroke:none;" d="M73 68L74 69L73 68M90 68L91 69L90 68z"/>
<path style="fill:#6c01bc; stroke:none;" d="M132 68L133 69L132 68z"/>
<path style="fill:#5a015c; stroke:none;" d="M133 68L134 69L133 68M70.3333 69.6667L70.6667 70.3333L70.3333 69.6667z"/>
<path style="fill:#b101cd; stroke:none;" d="M73 69L74 70L73 69z"/>
<path style="fill:#5a015c; stroke:none;" d="M89 69L90 70L89 69z"/>
<path style="fill:#6c01bc; stroke:none;" d="M130 69L131 70L130 69z"/>
<path style="fill:#5a015c; stroke:none;" d="M131 69L132 70L131 69M74 70L75 71L74 70M88 70L89 71L88 70M128 70L129 71L128 70z"/>
<path style="fill:#b101cd; stroke:none;" d="M74 71L75 72L74 71M88 71L89 72L88 71z"/>
<path style="fill:#5a015c; stroke:none;" d="M126 71L127 72L126 71z"/>
<path style="fill:#b101cd; stroke:none;" d="M71 72L72 73L71 72z"/>
<path style="fill:#5a015c; stroke:none;" d="M75.3333 72.6667L75.6667 73.3333L75.3333 72.6667M87 72L88 73L87 72M71 73L72 74L71 73M86 73L87 74L86 73M127 73L127 74L130 74L127 73z"/>
<path style="fill:#6c01bc; stroke:none;" d="M130 73L130 74L133 74L130 73M143 73L143 74L147 74L143 73z"/>
<path style="fill:#5a015c; stroke:none;" d="M147 73L147 74L151 74L147 73M76.3333 74.6667L76.6667 75.3333L76.3333 74.6667M85 74L86 75L85 74z"/>
<path style="fill:#6c01bc; stroke:none;" d="M152 74L152 75L156 75L152 74z"/>
<path style="fill:#5a015c; stroke:none;" d="M156.667 74.3333L157.333 74.6667L156.667 74.3333z"/>
<path style="fill:#b101cd; stroke:none;" d="M72 75L73 76L72 75z"/>
<path style="fill:#5a015c; stroke:none;" d="M84 75L85 76L84 75z"/>
<path style="fill:#6c01bc; stroke:none;" d="M158 75L160 78L161 77L160 75L158 75z"/>
<path style="fill:#5a015c; stroke:none;" d="M160 75L161 76L160 75M72 76L73 77L72 76M77 76L78 77L77 76z"/>
<path style="fill:#b101cd; stroke:none;" d="M77 77L78 78L77 77M83 77L84 78L83 77M73 78L74 79L73 78z"/>
<path style="fill:#5a015c; stroke:none;" d="M78 78L79 79L78 78z"/>
<path style="fill:#b101cd; stroke:none;" d="M82 78L83 79L82 78z"/>
<path style="fill:#6c01bc; stroke:none;" d="M158 78L159 79L158 78z"/>
<path style="fill:#5a015c; stroke:none;" d="M73 79L74 80L73 79M79.6667 79.3333L80.3333 79.6667L79.6667 79.3333z"/>
<path style="fill:#b101cd; stroke:none;" d="M81 79L82 80L81 79z"/>
<path style="fill:#6c01bc; stroke:none;" d="M157 79L158 80L157 79z"/>
<path style="fill:#5a015c; stroke:none;" d="M156 80L157 81L156 80z"/>
<path style="fill:#b101cd; stroke:none;" d="M74 81L75 82L74 81z"/>
<path style="fill:#6c01bc; stroke:none;" d="M154 81L155 82L154 81z"/>
<path style="fill:#5a015c; stroke:none;" d="M155 81L156 82L155 81M74 82L75 83L74 82z"/>
<path style="fill:#6c01bc; stroke:none;" d="M153 82L154 83L153 82M151 83L152 84L151 83z"/>
<path style="fill:#5a015c; stroke:none;" d="M152 83L153 84L152 83M75.3333 84.6667L75.6667 85.3333L75.3333 84.6667M85.6667 84.3333L86.3333 84.6667L85.6667 84.3333z"/>
<path style="fill:#6c01bc; stroke:none;" d="M149 84L150 85L149 84z"/>
<path style="fill:#5a015c; stroke:none;" d="M150 84L151 85L150 84M84 85L85 86L84 85M87 85L88 86L87 85z"/>
<path style="fill:#6c01bc; stroke:none;" d="M147 85L148 86L147 85z"/>
<path style="fill:#5a015c; stroke:none;" d="M148 85L149 86L148 85z"/>
<path style="fill:#b101cd; stroke:none;" d="M76 86L77 87L76 86z"/>
<path style="fill:#5a015c; stroke:none;" d="M83 86L84 87L83 86z"/>
<path style="fill:#6c01bc; stroke:none;" d="M144 86L145 87L144 86z"/>
<path style="fill:#5a015c; stroke:none;" d="M145.667 86.3333L146.333 86.6667L145.667 86.3333M76 87L77 88L76 87M82 87L83 88L82 87M88.3333 87.6667L88.6667 88.3333L88.3333 87.6667z"/>
<path style="fill:#6c01bc; stroke:none;" d="M139.667 87.3333L140.333 87.6667L139.667 87.3333z"/>
<path style="fill:#5a015c; stroke:none;" d="M141.667 87.3333L142.333 87.6667L141.667 87.3333M77 88L78 89L77 88M81 88L82 89L81 88z"/>
<path style="fill:#6c01bc; stroke:none;" d="M129 88L130 89L129 88z"/>
<path style="fill:#5a015c; stroke:none;" d="M130 90L137 89L130 90M78 89L78 90L81 90L78 89M108.667 90.3333L109.333 90.6667L108.667 90.3333z"/>
<path style="fill:#b101cd; stroke:none;" d="M110 90L111 91L110 90z"/>
<path style="fill:#5a015c; stroke:none;" d="M131 90L132 91L131 90M89 91L89 94L90 94L89 91M107 91L108 92L107 91z"/>
<path style="fill:#b101cd; stroke:none;" d="M111 91L112 92L111 91z"/>
<path style="fill:#5a015c; stroke:none;" d="M133 91L134 92L133 91z"/>
<path style="fill:#b101cd; stroke:none;" d="M112 92L113 93L112 92z"/>
<path style="fill:#5a015c; stroke:none;" d="M134 92L135 93L134 92z"/>
<path style="fill:#b101cd; stroke:none;" d="M106.333 93.6667L106.667 94.3333L106.333 93.6667M113 93L114 94L113 93z"/>
<path style="fill:#de0193; stroke:none;" d="M121 93L122 94L121 93z"/>
<path style="fill:#5a015c; stroke:none;" d="M135 93L136 94L135 93M113 94L114 95L113 94z"/>
<path style="fill:#6c01bc; stroke:none;" d="M119 94L120 95L119 94z"/>
<path style="fill:#5a015c; stroke:none;" d="M120.667 94.3333L121.333 94.6667L120.667 94.3333z"/>
<path style="fill:#6c01bc; stroke:none;" d="M133 94L134 95L133 94z"/>
<path style="fill:#5a015c; stroke:none;" d="M134 94L135 95L134 94M106 95L106 104L107 104L106 95z"/>
<path style="fill:#6c01bc; stroke:none;" d="M114 95L115 96L114 95z"/>
<path style="fill:#5a015c; stroke:none;" d="M119 95L120 96L119 95M125 95L125 96L132 96L125 95z"/>
<path style="fill:#b101cd; stroke:none;" d="M90.3333 96.6667L90.6667 97.3333L90.3333 96.6667z"/>
<path style="fill:#5a015c; stroke:none;" d="M114 96L115 97L114 96z"/>
<path style="fill:#b101cd; stroke:none;" d="M115.333 96.6667L115.667 97.3333L115.333 96.6667M119 96L116 101L118 100L118 101L124.381 120L126 131L135 133L135 132C124.781 122.897 125.875 107.359 119 96z"/>
<path style="fill:#5a015c; stroke:none;" d="M70.6667 97.3333L71.3333 97.6667L70.6667 97.3333M68 98L69 99L68 98z"/>
<path style="fill:#b101cd; stroke:none;" d="M69 98L70 99L69 98M73 98L74 99L73 98z"/>
<path style="fill:#5a015c; stroke:none;" d="M74 98L75 99L74 98M90 98L90 103L91 103L90 98M115.333 98.6667L115.667 99.3333L115.333 98.6667M120 98L121 99L120 98z"/>
<path style="fill:#6c01bc; stroke:none;" d="M67 99L68 100L67 99z"/>
<path style="fill:#b101cd; stroke:none;" d="M75 99L76 100L75 99z"/>
<path style="fill:#5a015c; stroke:none;" d="M76 99L77 100L76 99z"/>
<path style="fill:#6c01bc; stroke:none;" d="M120 99L121 100L120 99z"/>
<path style="fill:#5a015c; stroke:none;" d="M66 100L67 101L66 100z"/>
<path style="fill:#b101cd; stroke:none;" d="M77 100L78 101L77 100z"/>
<path style="fill:#5a015c; stroke:none;" d="M78 100L79 101L78 100z"/>
<path style="fill:#de0193; stroke:none;" d="M117.333 100.667L117.667 101.333L117.333 100.667z"/>
<path style="fill:#5a015c; stroke:none;" d="M121 100L122 101L121 100M65 101L63 104L65 101M79 101L80 102L79 101z"/>
<path style="fill:#6c01bc; stroke:none;" d="M116 101L117 102L116 101z"/>
<path style="fill:#b101cd; stroke:none;" d="M65 102L66 103L65 102z"/>
<path style="fill:#5a015c; stroke:none;" d="M81 102L82 103L81 102M116.333 102.667L116.667 103.333L116.333 102.667M122 102L123 103L122 102M53 103L54 104L53 103z"/>
<path style="fill:#6c01bc; stroke:none;" d="M54 103L55 104L54 103z"/>
<path style="fill:#5a015c; stroke:none;" d="M55 103L55 104L58 104L55 103z"/>
<path style="fill:#b101cd; stroke:none;" d="M64 103L65 104L64 103M82 103L83 104L82 103z"/>
<path style="fill:#5a015c; stroke:none;" d="M83 103L84 104L83 103z"/>
<path style="fill:#b101cd; stroke:none;" d="M90.3333 103.667L90.6667 104.333L90.3333 103.667M44 135C50.024 131.646 60.1138 120.36 67 120.917C79.8311 121.954 91.4465 141.533 105.985 132.258C111.7 128.611 115.522 115.617 108.351 111.071C104.837 108.843 96.2142 113.843 92 114.066C78.2295 114.793 67.0666 101.025 54.1042 104.332C49.1901 105.585 39.1555 123.029 39.3048 127.961C39.3869 130.673 42.4334 133.016 44 135z"/>
<path style="fill:#6c01bc; stroke:none;" d="M59 104L60 105L59 104z"/>
<path style="fill:#5a015c; stroke:none;" d="M60.6667 104.333L61.3333 104.667L60.6667 104.333z"/>
<path style="fill:#6c01bc; stroke:none;" d="M84 104L85 105L84 104z"/>
<path style="fill:#5a015c; stroke:none;" d="M85 104L86 105L85 104z"/>
<path style="fill:#b101cd; stroke:none;" d="M106.333 104.667L106.667 105.333L106.333 104.667z"/>
<path style="fill:#5a015c; stroke:none;" d="M123 104L124 105L123 104M86 105L87 106L86 105z"/>
<path style="fill:#6c01bc; stroke:none;" d="M117 105L118 106L117 105M50 106L51 107L50 106z"/>
<path style="fill:#b101cd; stroke:none;" d="M87 106L88 107L87 106z"/>
<path style="fill:#5a015c; stroke:none;" d="M88 106L89 107L88 106z"/>
<path style="fill:#b101cd; stroke:none;" d="M89 106L90 107L89 106z"/>
<path style="fill:#5a015c; stroke:none;" d="M107 106L108 107L107 106M117 106L118 107L117 106M124 106L125 107L124 106M49 107L50 108L49 107z"/>
<path style="fill:#6c01bc; stroke:none;" d="M107 107L108 108L107 107M124 107L125 108L124 107M49 108L50 109L49 108z"/>
<path style="fill:#b101cd; stroke:none;" d="M107 108L108 109L107 108z"/>
<path style="fill:#5a015c; stroke:none;" d="M118 108L119 109L118 108M48 109L49 110L48 109M108 109L109 110L108 109M125.333 109.667L125.667 110.333L125.333 109.667M119 110L120 111L119 110M47 111L48 112L47 111M109 111L110 112L109 111z"/>
<path style="fill:#6c01bc; stroke:none;" d="M125 111L126 112L125 111z"/>
<path style="fill:#5a015c; stroke:none;" d="M120 112L121 113L120 112M46 113L47 114L46 113M110 113L111 114L110 113M121 114L122 115L121 114M126.333 114.667L126.667 115.333L126.333 114.667M45 115L46 116L45 115M111.333 115.667L111.667 116.333L111.333 115.667M122 116L123 117L122 116z"/>
<path style="fill:#6c01bc; stroke:none;" d="M126.333 116.667L126.667 117.333L126.333 116.667M44 117L45 118L44 117M123 117L124 118L123 117z"/>
<path style="fill:#5a015c; stroke:none;" d="M43 118L44 119L43 118M123 118L124 119L123 118z"/>
<path style="fill:#6c01bc; stroke:none;" d="M43 119L44 120L43 119z"/>
<path style="fill:#5a015c; stroke:none;" d="M112 119L112 124L113 124L112 119z"/>
<path style="fill:#6c01bc; stroke:none;" d="M124 119L125 120L124 119z"/>
<path style="fill:#5a015c; stroke:none;" d="M127 119L128 120L127 119M42 120L43 121L42 120z"/>
<path style="fill:#6c01bc; stroke:none;" d="M64 120L65 121L64 120z"/>
<path style="fill:#5a015c; stroke:none;" d="M65 120L65 121L68 121L65 120M124 120L125 121L124 120z"/>
<path style="fill:#6c01bc; stroke:none;" d="M127 120L128 121L127 120M42 121L43 122L42 121z"/>
<path style="fill:#5a015c; stroke:none;" d="M63 121L64 122L63 121M69 121L70 122L69 121M41 122L42 123L41 122z"/>
<path style="fill:#6c01bc; stroke:none;" d="M61 122L62 123L61 122z"/>
<path style="fill:#5a015c; stroke:none;" d="M71 122L72 123L71 122z"/>
<path style="fill:#6c01bc; stroke:none;" d="M125.333 122.667L125.667 123.333L125.333 122.667z"/>
<path style="fill:#5a015c; stroke:none;" d="M128 122L129 123L128 122M40 123L41 124L40 123M60 123L61 124L60 123M72 123L73 124L72 123z"/>
<path style="fill:#6c01bc; stroke:none;" d="M73 123L74 124L73 123M128 123L129 124L128 123M40 124L41 125L40 124z"/>
<path style="fill:#5a015c; stroke:none;" d="M59 124L60 125L59 124M74 124L75 125L74 124M129 124L130 125L129 124z"/>
<path style="fill:#6c01bc; stroke:none;" d="M39 125L40 126L39 125z"/>
<path style="fill:#5a015c; stroke:none;" d="M58 125L59 126L58 125M76 125L77 126L76 125M124 125L124 129L125 129L124 125z"/>
<path style="fill:#6c01bc; stroke:none;" d="M129 125L130 126L129 125M38 126L16 155L28 150.005L38.686 146.972L47 133L44 135L38 126M56 126L57 127L56 126z"/>
<path style="fill:#5a015c; stroke:none;" d="M57 126L58 127L57 126M77 126L78 127L77 126z"/>
<path style="fill:#6c01bc; stroke:none;" d="M78 126L79 127L78 126M111 126L112 127L111 126z"/>
<path style="fill:#5a015c; stroke:none;" d="M130 126L131 127L130 126M37 127L38 128L37 127z"/>
<path style="fill:#6c01bc; stroke:none;" d="M55 127L56 128L55 127z"/>
<path style="fill:#5a015c; stroke:none;" d="M79 127L80 128L79 127M111 127L112 128L111 127z"/>
<path style="fill:#6c01bc; stroke:none;" d="M130 127L131 128L130 127z"/>
<path style="fill:#5a015c; stroke:none;" d="M36 128L37 129L36 128M54 128L55 129L54 128z"/>
<path style="fill:#6c01bc; stroke:none;" d="M81 128L82 129L81 128M110 128L111 129L110 128z"/>
<path style="fill:#5a015c; stroke:none;" d="M131 128L132 129L131 128M35 129L36 130L35 129z"/>
<path style="fill:#6c01bc; stroke:none;" d="M52 129L53 130L52 129z"/>
<path style="fill:#5a015c; stroke:none;" d="M53 129L54 130L53 129M82 129L83 130L82 129z"/>
<path style="fill:#6c01bc; stroke:none;" d="M83 129L84 130L83 129M109 129L110 130L109 129M125 129L126 130L125 129z"/>
<path style="fill:#5a015c; stroke:none;" d="M132 129L133 130L132 129M34 130L35 131L34 130z"/>
<path style="fill:#6c01bc; stroke:none;" d="M51 130L52 131L51 130z"/>
<path style="fill:#5a015c; stroke:none;" d="M84 130L85 131L84 130z"/>
<path style="fill:#6c01bc; stroke:none;" d="M108 130L109 131L108 130z"/>
<path style="fill:#5a015c; stroke:none;" d="M125 130L126 131L125 130z"/>
<path style="fill:#6c01bc; stroke:none;" d="M127 133L130 132C128.047 130.195 126.986 130.267 127 133z"/>
<path style="fill:#5a015c; stroke:none;" d="M133 130L135 132L133 130z"/>
<path style="fill:#6c01bc; stroke:none;" d="M49 131L50 132L49 131z"/>
<path style="fill:#5a015c; stroke:none;" d="M50 131L51 132L50 131M86 131L87 132L86 131z"/>
<path style="fill:#6c01bc; stroke:none;" d="M107 131L108 132L107 131z"/>
<path style="fill:#020102; stroke:none;" d="M128 131L129 132L128 131z"/>
<path style="fill:#6c01bc; stroke:none;" d="M133 131L134 132L133 131M48 132L49 133L48 132z"/>
<path style="fill:#5a015c; stroke:none;" d="M88 132L89 133L88 132z"/>
<path style="fill:#6c01bc; stroke:none;" d="M106 132L107 133L106 132z"/>
<path style="fill:#5a015c; stroke:none;" d="M128.333 132.667L128.667 133.333L128.333 132.667M130 132L131 133L130 132z"/>
<path style="fill:#6c01bc; stroke:none;" d="M131 132L132 133L131 132M133 133L133 134L138 134L133 133z"/>
<path style="fill:#5a015c; stroke:none;" d="M136 132L137 133L136 132M47 133L48 134L47 133M90 133L91 134L90 133z"/>
<path style="fill:#6c01bc; stroke:none;" d="M91.6667 133.333L92.3333 133.667L91.6667 133.333M104 133L105 134L104 133z"/>
<path style="fill:#5a015c; stroke:none;" d="M105 133L106 134L105 133M132 133L133 134L132 133M46 134L47 135L46 134M94 134L94 135L98 135L94 134z"/>
<path style="fill:#6c01bc; stroke:none;" d="M98 134L98 135L102 135L98 134z"/>
<path style="fill:#5a015c; stroke:none;" d="M102.667 134.333L103.333 134.667L102.667 134.333M45 135L46 136L45 135M44 136L45 137L44 136M43 137L44 138L43 137M42 138L43 139L42 138M26 139L27 140L26 139M25 140L26 141L25 140M41.3333 141.667L41.6667 142.333L41.3333 141.667M23 143L24 144L23 143M22 144L23 145L22 144M21 146L22 147L21 146M40 146L41 147L40 146M20 147L21 148L20 147M39 147L40 148L39 147M30 148L31 149L30 148M18 150L19 151L18 150M26 150L27 151L26 150M17 151L18 152L17 151M25 151L26 152L25 151M16 152L17 153L16 152M24 152L25 153L24 152M23 153L24 154L23 153M22 154L23 155L22 154M16 155L17 156L16 155M20 155L21 156L20 155z"/>
</svg>
