<svg width="270" height="270" viewBox="0 0 270 270" fill="none" xmlns="http://www.w3.org/2000/svg">
<path d="M97.6312 74.857L103.938 91.4914C104.028 91.7287 104.33 91.7869 104.498 91.5995L107.969 87.7273C108.055 87.6318 108.081 87.4948 108.036 87.3732L102.167 71.3695C102.086 71.15 101.82 71.0757 101.642 71.2231L97.733 74.4646C97.6195 74.5588 97.5783 74.7174 97.6312 74.857Z" fill="#19191F"/>
<path d="M159.61 151.986C159.413 145.138 160.169 137.077 161.845 135.93C164.786 133.918 168.633 138.105 171.345 142.811C174.241 147.838 173.985 152.213 175.879 157.72C179.232 167.468 184.756 175.496 186.991 180.657C188.587 184.34 186.991 186.964 186.991 190.978C186.991 193.532 187.803 194.619 189.227 196.713C190.855 199.107 192.579 200.384 194.256 200.727C195.932 201.069 191.059 197.75 191.693 196.066C192.063 195.082 195.503 198.777 197.609 199.58C200.704 200.76 202.712 201.129 205.991 200.727C206.226 200.698 206.455 200.662 206.676 200.622C207.713 200.435 207.583 199.214 206.549 199.006C202.689 198.231 200.848 196.227 198.167 193.272C195.437 190.264 194.827 187.825 193.138 184.097C188.788 174.493 189.715 166.321 185.804 157.72C181.892 149.119 181.444 151.337 180.286 146.252C179.836 144.277 178.609 142.238 179.727 141.091C179.727 141.091 186.833 142.844 191.462 142.811C195.875 142.779 198.726 142.811 202.638 141.091C206.753 139.281 190.337 132.489 194.815 132.489L194.861 132.489C196.346 132.49 213.669 132.502 223.872 127.329C231.939 123.239 238.401 118.727 241.754 113.566C243.032 111.599 223.62 109.887 212.138 108.979C202.782 108.239 188.668 111.442 188.668 108.406C188.668 105.539 214.854 98.7397 226.666 86.0422C241.11 70.5159 249.018 57.3711 249.018 36.7279C249.018 28.6885 176.374 96.3638 165.757 96.3638C161.639 96.3638 160.642 91.3863 160.169 87.1891C159.864 84.4828 158.907 84.0112 160.728 82.0283C162.434 80.1698 162.963 82.0283 166.316 78.5877C169.669 75.1472 168.88 72.0381 170.786 68.2661C172.795 64.2901 176.345 62.9966 176.374 58.518C176.391 55.8969 175.779 54.2197 174.139 52.2103C172.383 50.0593 169.493 47.2022 166.875 48.7698C164.256 50.3373 165.023 50.6428 162.404 52.2103C159.785 53.7779 158.611 52.6208 156.816 52.2103C156.816 52.2103 154.641 51.8254 153.238 51.8602C151.892 51.8937 149.558 52.0232 149.558 52.0232C147.042 52.1869 145.789 52.5807 143.964 53.3572C140.495 54.8323 137.258 57.9445 137.817 61.3851C137.888 61.8207 138.376 59.6648 140.052 58.518C142.993 56.5063 139.493 59.3033 139.493 61.9585C139.493 63.8051 139.252 66.6536 138.376 68.2661C137.245 70.3449 133.91 71.0901 134.464 72.8535C134.705 73.622 135.874 73.2413 136.214 73.9697C136.435 74.4432 135.913 75.6848 135.651 76.2448C135.571 76.4172 135.407 76.5984 135.322 77.0945C135.238 77.5906 135.788 77.8438 135.746 77.9242C135.704 78.0046 135.31 78.0878 135.28 78.4802C135.211 79.4008 136.032 79.3914 136.14 80.308C136.352 82.1003 134.956 82.061 135.582 83.7485C136.755 86.916 141.901 82.8226 143.964 85.4688C146.199 88.3359 146.199 96.3638 143.964 97.5106C142.988 98.0114 142.112 96.9465 141.17 97.5106C134.464 101.525 122.729 121.868 119.376 119.301C115.465 116.306 111.535 104.968 109.232 100.068C107.824 97.0729 105.176 93.9462 106.044 90.5644L104.872 91.8746C104.872 91.8746 104.665 92.2225 104.127 92.1497C103.729 92.0958 103.581 91.7269 103.581 91.7269L102.577 89.0127C102.577 89.0127 102.451 87.7113 102.402 86.4534C102.38 85.8849 102.355 84.8503 102.402 84.6842C102.555 84.1505 102.948 83.6346 102.701 83.5413C102.454 83.4479 101.946 83.9107 101.71 84.9102C101.548 85.5914 101.682 86.7362 101.542 86.366C101.403 85.9959 99.0608 79.8422 99.0608 79.8422C99.5498 83.295 100.259 89.1121 101.027 90.7199C101.955 92.6645 103.321 94.0413 103.959 97.5307C105.359 105.196 110.436 119.301 110.436 119.301C110.436 119.301 115.465 135.815 119.376 134.21C123.288 132.604 127.2 125.035 129.994 126.182C133.633 127.676 135.582 147.398 135.582 147.398C135.582 147.398 136.14 158.293 133.905 159.44C131.67 160.587 112.112 145.509 105.965 146.252C99.8183 146.994 98.1198 154.187 93.6715 156C88.9889 157.907 83.4628 152.766 79.1426 155.426C73.5546 158.867 68.7667 174.211 60.7022 185.244C50.969 198.56 42.7405 202.84 33.8797 216.782C31.7943 220.064 30.0344 222.259 27.7328 225.384C26.9199 226.488 25.8842 227.673 24.8082 228.812C22.8761 230.859 24.3001 234.258 27.0663 233.74C28.2967 233.51 29.4959 233.215 30.5268 232.838C36.2868 230.734 37.8146 225.69 43.3793 223.09C49.6912 220.141 57.9081 224.237 60.7022 219.65C62.3214 216.991 61.2531 213.389 62.3786 210.475C63.1824 208.393 63.2193 208.183 64.6138 206.461C70.4722 199.224 75.1064 197.695 82.4954 192.125C89.3253 186.977 96.4655 178.937 99.8183 180.083C106.524 182.377 119.935 192.125 129.994 197.286C136.811 200.784 140.323 201.331 148.434 201.873C153.943 202.242 157.626 200.939 161.845 197.286C166.173 193.54 168.175 190.001 168.551 184.097C168.738 181.158 168.568 179.528 167.992 176.643C165.967 166.499 159.908 162.336 159.61 151.986Z" fill="#19191F"/>
</svg>
