<svg width="407" height="78" viewBox="0 0 407 78" fill="none" xmlns="http://www.w3.org/2000/svg">
<g filter="url(#filter0_f_1348_34178)">
<path d="M34.3205 35.068L33.984 36.6666L33.992 36.6683L34.0001 36.6699L34.3205 35.068ZM41.2965 30.012L39.7169 30.4288L40.1403 32.0333L41.738 31.5849L41.2965 30.012ZM48.5925 27.964L49.034 29.5369L50.5624 29.1078L50.1774 27.5678L48.5925 27.964ZM32.9125 42.428L32.6176 44.0349L32.6294 44.037L32.9125 42.428ZM23.1205 47.484L24.6869 47.0199L24.2257 45.4634L22.6662 45.9148L23.1205 47.484ZM15.8245 49.596L15.3702 48.0268L13.8412 48.4694L14.244 50.0094L15.8245 49.596ZM32.9765 63.9657C37.8799 63.9657 42.3826 62.5708 45.6972 59.9691C49.0409 57.3445 51.1222 53.5228 51.1222 48.892H47.8548C47.8548 52.4532 46.2881 55.3515 43.6798 57.3989C41.0424 59.4692 37.2891 60.6983 32.9765 60.6983V63.9657ZM51.1222 48.892C51.1222 44.6244 49.7404 41.2091 46.8296 38.6228C43.9987 36.1074 39.8714 34.5122 34.6409 33.4661L34.0001 36.6699C39.0096 37.6718 42.4663 39.1166 44.6594 41.0652C46.7726 42.9429 47.8548 45.4156 47.8548 48.892H51.1222ZM34.6571 33.4694C31.6006 32.8259 29.4916 32.2266 28.1539 31.4535C27.5135 31.0835 27.131 30.7174 26.9029 30.3614C26.6845 30.0208 26.5462 29.5948 26.5462 28.988H23.2788C23.2788 30.1412 23.5565 31.1952 24.1521 32.1246C24.738 33.0386 25.5675 33.7325 26.5191 34.2825C28.3654 35.3494 30.9604 36.0301 33.984 36.6666L34.6571 33.4694ZM26.5462 28.988C26.5462 27.4043 27.1491 26.3538 28.1227 25.6442C29.1651 24.8846 30.784 24.4137 32.9125 24.4137V21.1463C30.369 21.1463 27.9879 21.6994 26.1983 23.0038C24.3399 24.3582 23.2788 26.4117 23.2788 28.988H26.5462ZM32.9125 24.4137C35.0675 24.4137 36.4275 24.9769 37.3854 25.8657C38.3879 26.7957 39.1447 28.2605 39.7169 30.4288L42.8761 29.5952C42.2323 27.1555 41.2611 25.0043 39.6076 23.4703C37.9096 21.8951 35.6855 21.1463 32.9125 21.1463V24.4137ZM41.738 31.5849L49.034 29.5369L48.151 26.3911L40.855 28.4391L41.738 31.5849ZM50.1774 27.5678C49.1457 23.4409 47.1202 20.0481 44.1424 17.6911C41.1619 15.3319 37.3483 14.1063 32.9125 14.1063V17.3737C36.7327 17.3737 39.7991 18.4201 42.1146 20.2529C44.4328 22.0879 46.1193 24.8071 47.0076 28.3602L50.1774 27.5678ZM32.9125 14.1063C27.9613 14.1063 23.6171 15.5585 20.4802 18.183C17.3227 20.8249 15.4708 24.5932 15.4708 28.988H18.7382C18.7382 25.5748 20.1504 22.7191 22.5768 20.689C25.0239 18.6415 28.5837 17.3737 32.9125 17.3737V14.1063ZM15.4708 28.988C15.4708 33.3041 17.1046 36.6744 20.1909 39.1636C23.1902 41.5827 27.4567 43.0876 32.6176 44.0348L33.2074 40.8212C28.2563 39.9124 24.6188 38.5373 22.2421 36.6204C19.9524 34.7736 18.7382 32.3519 18.7382 28.988H15.4708ZM32.6294 44.037C35.993 44.6287 37.8513 45.4309 38.8532 46.2517C39.7414 46.9794 40.0468 47.7928 40.0468 48.892H43.3142C43.3142 46.9832 42.6916 45.1726 40.9238 43.7243C39.2698 42.3691 36.744 41.4433 33.1956 40.819L32.6294 44.037ZM40.0468 48.892C40.0468 50.4601 39.4042 51.5624 38.2928 52.3341C37.1124 53.1536 35.3011 53.6583 32.9765 53.6583V56.9257C35.7079 56.9257 38.2486 56.3424 40.1562 55.0179C42.1328 53.6456 43.3142 51.5479 43.3142 48.892H40.0468ZM32.9765 53.6583C30.383 53.6583 28.7169 53.0655 27.5362 52.0786C26.3269 51.0676 25.4115 49.4655 24.6869 47.0199L21.5541 47.9481C22.3655 50.6865 23.5302 52.9884 25.4408 54.5854C27.3801 56.2065 29.874 56.9257 32.9765 56.9257V53.6583ZM22.6662 45.9148L15.3702 48.0268L16.2788 51.1652L23.5748 49.0532L22.6662 45.9148ZM14.244 50.0094C15.4122 54.4761 17.6797 58.0022 20.9359 60.3996C24.1841 62.7911 28.288 63.9657 32.9765 63.9657V60.6983C28.833 60.6983 25.4489 59.6649 22.8731 57.7684C20.3053 55.8778 18.4128 53.0359 17.405 49.1826L14.244 50.0094ZM62.3245 61.5H60.6908V63.1337H62.3245V61.5ZM70.1325 61.5V63.1337H71.7662V61.5H70.1325ZM70.1325 16.7H71.7662V15.0663H70.1325V16.7ZM62.3245 16.7V15.0663H60.6908V16.7H62.3245ZM62.3245 63.1337H70.1325V59.8663H62.3245V63.1337ZM71.7662 61.5V16.7H68.4988V61.5H71.7662ZM70.1325 15.0663H62.3245V18.3337H70.1325V15.0663ZM60.6908 16.7V61.5H63.9582V16.7H60.6908ZM85.2095 61.5H83.5758V63.1337H85.2095V61.5ZM85.2095 16.7V15.0663H83.5758V16.7H85.2095ZM93.0175 54.46H91.3838V56.0937H93.0175V54.46ZM93.0175 23.74V22.1063H91.3838V23.74H93.0175ZM85.2095 63.1337H100.954V59.8663H85.2095V63.1337ZM100.954 63.1337C107.829 63.1337 113.633 60.6387 117.711 56.308C121.78 51.9868 124.027 45.9507 124.027 39.036H120.76C120.76 45.2413 118.751 50.4372 115.332 54.068C111.922 57.6893 107.006 59.8663 100.954 59.8663V63.1337ZM124.027 39.036C124.027 32.5639 122.182 26.56 118.272 22.1519C114.334 17.7137 108.456 15.0663 100.762 15.0663V18.3337C107.659 18.3337 112.597 20.6782 115.827 24.3201C119.085 27.992 120.76 33.1561 120.76 39.036H124.027ZM100.762 15.0663H85.2095V18.3337H100.762V15.0663ZM83.5758 16.7V61.5H86.8432V16.7H83.5758ZM94.6512 54.46V23.74H91.3838V54.46H94.6512ZM93.0175 25.3737H100.122V22.1063H93.0175V25.3737ZM100.122 25.3737C105.478 25.3737 108.557 27.0588 110.359 29.3812C112.222 31.7836 112.952 35.1635 112.952 38.972H116.219C116.219 34.8445 115.445 30.6084 112.94 27.3788C110.374 24.0692 106.221 22.1063 100.122 22.1063V25.3737ZM112.952 38.972C112.952 42.575 112.144 46.0592 110.264 48.6005C108.442 51.0631 105.481 52.8263 100.698 52.8263V56.0937C106.41 56.0937 110.393 53.9209 112.891 50.5435C115.331 47.2448 116.219 42.985 116.219 38.972H112.952ZM100.698 52.8263H93.0175V56.0937H100.698V52.8263ZM136.032 61.5H134.398V63.1337H136.032V61.5ZM164.192 61.5V63.1337H165.826V61.5H164.192ZM164.192 54.46H165.826V52.8263H164.192V54.46ZM143.84 54.46H142.206V56.0937H143.84V54.46ZM143.84 42.364V40.7303H142.206V42.364H143.84ZM161.504 42.364V43.9977H163.138V42.364H161.504ZM161.504 35.516H163.138V33.8823H161.504V35.516ZM143.84 35.516H142.206V37.1497H143.84V35.516ZM143.84 23.74V22.1063H142.206V23.74H143.84ZM164.192 23.74V25.3737H165.826V23.74H164.192ZM164.192 16.7H165.826V15.0663H164.192V16.7ZM136.032 16.7V15.0663H134.398V16.7H136.032ZM136.032 63.1337H164.192V59.8663H136.032V63.1337ZM165.826 61.5V54.46H162.558V61.5H165.826ZM164.192 52.8263H143.84V56.0937H164.192V52.8263ZM145.474 54.46V42.364H142.206V54.46H145.474ZM143.84 43.9977H161.504V40.7303H143.84V43.9977ZM163.138 42.364V35.516H159.87V42.364H163.138ZM161.504 33.8823H143.84V37.1497H161.504V33.8823ZM145.474 35.516V23.74H142.206V35.516H145.474ZM143.84 25.3737H164.192V22.1063H143.84V25.3737ZM165.826 23.74V16.7H162.558V23.74H165.826ZM164.192 15.0663H136.032V18.3337H164.192V15.0663ZM134.398 16.7V61.5H137.666V16.7H134.398ZM201.177 61.5H199.543V63.1337H201.177V61.5ZM208.985 61.5V63.1337H210.619V61.5H208.985ZM208.985 45.244V43.6103H207.351V45.244H208.985ZM201.177 16.7V15.0663H199.543V16.7H201.177ZM208.985 38.204H207.351V39.8377H208.985V38.204ZM208.985 23.74V22.1063H207.351V23.74H208.985ZM201.177 63.1337H208.985V59.8663H201.177V63.1337ZM210.619 61.5V45.244H207.351V61.5H210.619ZM208.985 46.8777H217.561V43.6103H208.985V46.8777ZM217.561 46.8777C221.675 46.8777 225.803 45.652 228.931 42.9927C232.098 40.3007 234.107 36.2488 234.107 30.908H230.839C230.839 35.3592 229.2 38.4753 226.815 40.5033C224.391 42.564 221.063 43.6103 217.561 43.6103V46.8777ZM234.107 30.908C234.107 25.4571 232.141 21.4155 228.907 18.7713C225.724 16.1687 221.494 15.0663 217.177 15.0663V18.3337C220.988 18.3337 224.406 19.3113 226.839 21.3007C229.221 23.2485 230.839 26.3109 230.839 30.908H234.107ZM217.177 15.0663H201.177V18.3337H217.177V15.0663ZM199.543 16.7V61.5H202.811V16.7H199.543ZM210.619 38.204V23.74H207.351V38.204H210.619ZM208.985 25.3737H216.537V22.1063H208.985V25.3737ZM216.537 25.3737C218.999 25.3737 220.583 26.0426 221.542 26.9505C222.493 27.8507 223.031 29.1757 223.031 30.908H226.299C226.299 28.4803 225.525 26.2213 223.788 24.5775C222.059 22.9414 219.579 22.1063 216.537 22.1063V25.3737ZM223.031 30.908C223.031 32.6648 222.51 34.0282 221.573 34.9538C220.638 35.8776 219.081 36.5703 216.601 36.5703V39.8377C219.689 39.8377 222.164 38.9624 223.869 37.2782C225.572 35.5958 226.299 33.3112 226.299 30.908H223.031ZM216.601 36.5703H208.985V39.8377H216.601V36.5703ZM245.374 61.5H243.741V63.1337H245.374V61.5ZM253.182 61.5V63.1337H254.816V61.5H253.182ZM253.182 16.7H254.816V15.0663H253.182V16.7ZM245.374 16.7V15.0663H243.741V16.7H245.374ZM245.374 63.1337H253.182V59.8663H245.374V63.1337ZM254.816 61.5V16.7H251.549V61.5H254.816ZM253.182 15.0663H245.374V18.3337H253.182V15.0663ZM243.741 16.7V61.5H247.008V16.7H243.741ZM268.26 61.5H266.626V63.1337H268.26V61.5ZM296.419 61.5V63.1337H298.053V61.5H296.419ZM296.419 54.46H298.053V52.8263H296.419V54.46ZM276.068 54.46H274.434V56.0937H276.068V54.46ZM276.068 42.364V40.7303H274.434V42.364H276.068ZM293.732 42.364V43.9977H295.365V42.364H293.732ZM293.732 35.516H295.365V33.8823H293.732V35.516ZM276.068 35.516H274.434V37.1497H276.068V35.516ZM276.068 23.74V22.1063H274.434V23.74H276.068ZM296.419 23.74V25.3737H298.053V23.74H296.419ZM296.419 16.7H298.053V15.0663H296.419V16.7ZM268.26 16.7V15.0663H266.626V16.7H268.26ZM268.26 63.1337H296.419V59.8663H268.26V63.1337ZM298.053 61.5V54.46H294.786V61.5H298.053ZM296.419 52.8263H276.068V56.0937H296.419V52.8263ZM277.701 54.46V42.364H274.434V54.46H277.701ZM276.068 43.9977H293.732V40.7303H276.068V43.9977ZM295.365 42.364V35.516H292.098V42.364H295.365ZM293.732 33.8823H276.068V37.1497H293.732V33.8823ZM277.701 35.516V23.74H274.434V35.516H277.701ZM276.068 25.3737H296.419V22.1063H276.068V25.3737ZM298.053 23.74V16.7H294.786V23.74H298.053ZM296.419 15.0663H268.26V18.3337H296.419V15.0663ZM266.626 16.7V61.5H269.893V16.7H266.626ZM349.408 49.276L350.934 49.8601L351.546 48.2618L349.921 47.7248L349.408 49.276ZM342.048 46.844L342.561 45.2928L341.027 44.786L340.503 46.3142L342.048 46.844ZM342.112 32.124L340.55 32.6019L341.036 34.1912L342.617 33.6778L342.112 32.124ZM349.6 29.692L350.105 31.2458L351.664 30.7393L351.152 29.1819L349.6 29.692ZM329.76 63.9657C335.023 63.9657 339.487 62.6805 343.075 60.224C346.663 57.7676 349.267 54.2144 350.934 49.8601L347.882 48.6919C346.413 52.5296 344.185 55.5044 341.229 57.528C338.273 59.5515 334.481 60.6983 329.76 60.6983V63.9657ZM349.921 47.7248L342.561 45.2928L341.535 48.3952L348.895 50.8272L349.921 47.7248ZM340.503 46.3142C339.818 48.3112 338.672 50.099 336.991 51.3872C335.322 52.6652 333.025 53.5303 329.888 53.5303V56.7977C333.663 56.7977 336.678 55.7428 338.978 53.9808C341.264 52.229 342.742 49.8568 343.593 47.3738L340.503 46.3142ZM329.888 53.5303C322.509 53.5303 316.802 47.9035 316.802 39.1H313.534C313.534 49.4965 320.5 56.7977 329.888 56.7977V53.5303ZM316.802 39.1C316.802 30.6696 322.321 24.6057 329.696 24.6057V21.3383C320.175 21.3383 313.534 29.2264 313.534 39.1H316.802ZM329.696 24.6057C332.777 24.6057 335.095 25.4423 336.815 26.7929C338.546 28.1521 339.793 30.1279 340.55 32.6019L343.674 31.6461C342.767 28.6801 341.198 26.0799 338.833 24.2231C336.457 22.3577 333.399 21.3383 329.696 21.3383V24.6057ZM342.617 33.6778L350.105 31.2458L349.095 28.1382L341.607 30.5702L342.617 33.6778ZM351.152 29.1819C347.901 19.2908 339.735 14.1063 329.632 14.1063V17.3737C338.473 17.3737 345.283 21.7892 348.048 30.2021L351.152 29.1819ZM329.632 14.1063C315.598 14.1063 305.726 24.707 305.726 39.036H308.994C308.994 26.357 317.554 17.3737 329.632 17.3737V14.1063ZM305.726 39.036C305.726 46.4785 308.208 52.7317 312.521 57.1316C316.835 61.5318 322.87 63.9657 329.76 63.9657V60.6983C323.658 60.6983 318.493 58.5562 314.855 54.8444C311.216 51.1323 308.994 45.7375 308.994 39.036H305.726ZM362.592 61.5H360.958V63.1337H362.592V61.5ZM390.752 61.5V63.1337H392.386V61.5H390.752ZM390.752 54.46H392.386V52.8263H390.752V54.46ZM370.4 54.46H368.766V56.0937H370.4V54.46ZM370.4 42.364V40.7303H368.766V42.364H370.4ZM388.064 42.364V43.9977H389.698V42.364H388.064ZM388.064 35.516H389.698V33.8823H388.064V35.516ZM370.4 35.516H368.766V37.1497H370.4V35.516ZM370.4 23.74V22.1063H368.766V23.74H370.4ZM390.752 23.74V25.3737H392.386V23.74H390.752ZM390.752 16.7H392.386V15.0663H390.752V16.7ZM362.592 16.7V15.0663H360.958V16.7H362.592ZM362.592 63.1337H390.752V59.8663H362.592V63.1337ZM392.386 61.5V54.46H389.118V61.5H392.386ZM390.752 52.8263H370.4V56.0937H390.752V52.8263ZM372.034 54.46V42.364H368.766V54.46H372.034ZM370.4 43.9977H388.064V40.7303H370.4V43.9977ZM389.698 42.364V35.516H386.43V42.364H389.698ZM388.064 33.8823H370.4V37.1497H388.064V33.8823ZM372.034 35.516V23.74H368.766V35.516H372.034ZM370.4 25.3737H390.752V22.1063H370.4V25.3737ZM392.386 23.74V16.7H389.118V23.74H392.386ZM390.752 15.0663H362.592V18.3337H390.752V15.0663ZM360.958 16.7V61.5H364.226V16.7H360.958Z" fill="url(#paint0_linear_1348_34178)"/>
</g>
<g filter="url(#filter1_f_1348_34178)">
<path d="M46.1692 35.068L45.8327 36.6666L45.8408 36.6683L45.8489 36.6699L46.1692 35.068ZM53.1452 30.012L51.5657 30.4288L51.9891 32.0333L53.5868 31.5849L53.1452 30.012ZM60.4412 27.964L60.8828 29.5369L62.4111 29.1078L62.0261 27.5678L60.4412 27.964ZM44.7612 42.428L44.4663 44.0349L44.4782 44.037L44.7612 42.428ZM34.9692 47.484L36.5356 47.0199L36.0744 45.4634L34.515 45.9148L34.9692 47.484ZM27.6732 49.596L27.219 48.0268L25.69 48.4694L26.0927 50.0094L27.6732 49.596ZM44.8252 63.9657C49.7287 63.9657 54.2314 62.5708 57.5459 59.9691C60.8896 57.3445 62.9709 53.5228 62.9709 48.892H59.7036C59.7036 52.4532 58.1369 55.3515 55.5285 57.3989C52.8911 59.4692 49.1378 60.6983 44.8252 60.6983V63.9657ZM62.9709 48.892C62.9709 44.6244 61.5891 41.2091 58.6783 38.6228C55.8475 36.1074 51.7201 34.5122 46.4896 33.4661L45.8489 36.6699C50.8584 37.6718 54.315 39.1166 56.5081 41.0652C58.6214 42.9429 59.7036 45.4156 59.7036 48.892H62.9709ZM46.5058 33.4694C43.4493 32.8259 41.3404 32.2266 40.0026 31.4535C39.3623 31.0835 38.9798 30.7174 38.7516 30.3614C38.5333 30.0208 38.3949 29.5948 38.3949 28.988H35.1276C35.1276 30.1412 35.4052 31.1952 36.0008 32.1246C36.5867 33.0386 37.4162 33.7325 38.3678 34.2825C40.2141 35.3494 42.8092 36.0301 45.8327 36.6666L46.5058 33.4694ZM38.3949 28.988C38.3949 27.4043 38.9978 26.3538 39.9714 25.6442C41.0138 24.8846 42.6328 24.4137 44.7612 24.4137V21.1463C42.2177 21.1463 39.8367 21.6994 38.047 23.0038C36.1887 24.3582 35.1276 26.4117 35.1276 28.988H38.3949ZM44.7612 24.4137C46.9162 24.4137 48.2762 24.9769 49.2342 25.8657C50.2367 26.7957 50.9934 28.2605 51.5657 30.4288L54.7248 29.5952C54.081 27.1555 53.1098 25.0043 51.4563 23.4703C49.7583 21.8951 47.5343 21.1463 44.7612 21.1463V24.4137ZM53.5868 31.5849L60.8828 29.5369L59.9997 26.3911L52.7037 28.4391L53.5868 31.5849ZM62.0261 27.5678C60.9944 23.4409 58.9689 20.0481 55.9912 17.6911C53.0106 15.3319 49.1971 14.1063 44.7612 14.1063V17.3737C48.5814 17.3737 51.6478 18.4201 53.9633 20.2529C56.2816 22.0879 57.9681 24.8071 58.8564 28.3602L62.0261 27.5678ZM44.7612 14.1063C39.8101 14.1063 35.4658 15.5585 32.3289 18.183C29.1714 20.8249 27.3196 24.5932 27.3196 28.988H30.5869C30.5869 25.5748 31.9991 22.7191 34.4256 20.689C36.8727 18.6415 40.4324 17.3737 44.7612 17.3737V14.1063ZM27.3196 28.988C27.3196 33.3041 28.9534 36.6744 32.0396 39.1636C35.0389 41.5827 39.3055 43.0876 44.4663 44.0348L45.0562 40.8212C40.105 39.9124 36.4675 38.5373 34.0909 36.6204C31.8011 34.7736 30.5869 32.3519 30.5869 28.988H27.3196ZM44.4782 44.037C47.8418 44.6287 49.7 45.4309 50.7019 46.2517C51.5901 46.9794 51.8956 47.7928 51.8956 48.892H55.1629C55.1629 46.9832 54.5404 45.1726 52.7726 43.7243C51.1185 42.3691 48.5927 41.4433 45.0443 40.819L44.4782 44.037ZM51.8956 48.892C51.8956 50.4601 51.2529 51.5624 50.1415 52.3341C48.9612 53.1536 47.1499 53.6583 44.8252 53.6583V56.9257C47.5566 56.9257 50.0973 56.3424 52.0049 55.0179C53.9816 53.6456 55.1629 51.5479 55.1629 48.892H51.8956ZM44.8252 53.6583C42.2317 53.6583 40.5656 53.0655 39.385 52.0786C38.1756 51.0676 37.2602 49.4655 36.5356 47.0199L33.4029 47.9481C34.2143 50.6865 35.3789 52.9884 37.2895 54.5854C39.2288 56.2065 41.7227 56.9257 44.8252 56.9257V53.6583ZM34.515 45.9148L27.219 48.0268L28.1275 51.1652L35.4235 49.0532L34.515 45.9148ZM26.0927 50.0094C27.261 54.4761 29.5285 58.0022 32.7846 60.3996C36.0329 62.7911 40.1367 63.9657 44.8252 63.9657V60.6983C40.6818 60.6983 37.2976 59.6649 34.7218 57.7684C32.154 55.8778 30.2615 53.0359 29.2537 49.1826L26.0927 50.0094ZM74.1732 61.5H72.5396V63.1337H74.1732V61.5ZM81.9812 61.5V63.1337H83.6149V61.5H81.9812ZM81.9812 16.7H83.6149V15.0663H81.9812V16.7ZM74.1732 16.7V15.0663H72.5396V16.7H74.1732ZM74.1732 63.1337H81.9812V59.8663H74.1732V63.1337ZM83.6149 61.5V16.7H80.3476V61.5H83.6149ZM81.9812 15.0663H74.1732V18.3337H81.9812V15.0663ZM72.5396 16.7V61.5H75.8069V16.7H72.5396ZM97.0582 61.5H95.4246V63.1337H97.0582V61.5ZM97.0582 16.7V15.0663H95.4246V16.7H97.0582ZM104.866 54.46H103.233V56.0937H104.866V54.46ZM104.866 23.74V22.1063H103.233V23.74H104.866ZM97.0582 63.1337H112.802V59.8663H97.0582V63.1337ZM112.802 63.1337C119.678 63.1337 125.482 60.6387 129.56 56.308C133.629 51.9868 135.876 45.9507 135.876 39.036H132.609C132.609 45.2413 130.6 50.4372 127.181 54.068C123.771 57.6893 118.854 59.8663 112.802 59.8663V63.1337ZM135.876 39.036C135.876 32.5639 134.031 26.56 130.12 22.1519C126.183 17.7137 120.304 15.0663 112.61 15.0663V18.3337C119.508 18.3337 124.445 20.6782 127.676 24.3201C130.934 27.992 132.609 33.1561 132.609 39.036H135.876ZM112.61 15.0663H97.0582V18.3337H112.61V15.0663ZM95.4246 16.7V61.5H98.6919V16.7H95.4246ZM106.5 54.46V23.74H103.233V54.46H106.5ZM104.866 25.3737H111.97V22.1063H104.866V25.3737ZM111.97 25.3737C117.326 25.3737 120.406 27.0588 122.207 29.3812C124.071 31.7836 124.801 35.1635 124.801 38.972H128.068C128.068 34.8445 127.294 30.6084 124.789 27.3788C122.222 24.0692 118.07 22.1063 111.97 22.1063V25.3737ZM124.801 38.972C124.801 42.575 123.993 46.0592 122.113 48.6005C120.291 51.0631 117.329 52.8263 112.546 52.8263V56.0937C118.259 56.0937 122.241 53.9209 124.74 50.5435C127.18 47.2448 128.068 42.985 128.068 38.972H124.801ZM112.546 52.8263H104.866V56.0937H112.546V52.8263ZM147.881 61.5H146.247V63.1337H147.881V61.5ZM176.041 61.5V63.1337H177.674V61.5H176.041ZM176.041 54.46H177.674V52.8263H176.041V54.46ZM155.689 54.46H154.055V56.0937H155.689V54.46ZM155.689 42.364V40.7303H154.055V42.364H155.689ZM173.353 42.364V43.9977H174.986V42.364H173.353ZM173.353 35.516H174.986V33.8823H173.353V35.516ZM155.689 35.516H154.055V37.1497H155.689V35.516ZM155.689 23.74V22.1063H154.055V23.74H155.689ZM176.041 23.74V25.3737H177.674V23.74H176.041ZM176.041 16.7H177.674V15.0663H176.041V16.7ZM147.881 16.7V15.0663H146.247V16.7H147.881ZM147.881 63.1337H176.041V59.8663H147.881V63.1337ZM177.674 61.5V54.46H174.407V61.5H177.674ZM176.041 52.8263H155.689V56.0937H176.041V52.8263ZM157.322 54.46V42.364H154.055V54.46H157.322ZM155.689 43.9977H173.353V40.7303H155.689V43.9977ZM174.986 42.364V35.516H171.719V42.364H174.986ZM173.353 33.8823H155.689V37.1497H173.353V33.8823ZM157.322 35.516V23.74H154.055V35.516H157.322ZM155.689 25.3737H176.041V22.1063H155.689V25.3737ZM177.674 23.74V16.7H174.407V23.74H177.674ZM176.041 15.0663H147.881V18.3337H176.041V15.0663ZM146.247 16.7V61.5H149.514V16.7H146.247ZM189.328 61.5H187.695V63.1337H189.328V61.5ZM197.136 61.5V63.1337H198.77V61.5H197.136ZM197.136 45.244V43.6103H195.503V45.244H197.136ZM189.328 16.7V15.0663H187.695V16.7H189.328ZM197.136 38.204H195.503V39.8377H197.136V38.204ZM197.136 23.74V22.1063H195.503V23.74H197.136ZM189.328 63.1337H197.136V59.8663H189.328V63.1337ZM198.77 61.5V45.244H195.503V61.5H198.77ZM197.136 46.8777H205.712V43.6103H197.136V46.8777ZM205.712 46.8777C209.826 46.8777 213.954 45.652 217.082 42.9927C220.249 40.3007 222.258 36.2488 222.258 30.908H218.991C218.991 35.3592 217.352 38.4753 214.966 40.5033C212.542 42.564 209.214 43.6103 205.712 43.6103V46.8777ZM222.258 30.908C222.258 25.4571 220.292 21.4155 217.058 18.7713C213.875 16.1687 209.646 15.0663 205.328 15.0663V18.3337C209.139 18.3337 212.557 19.3113 214.99 21.3007C217.372 23.2485 218.991 26.3109 218.991 30.908H222.258ZM205.328 15.0663H189.328V18.3337H205.328V15.0663ZM187.695 16.7V61.5H190.962V16.7H187.695ZM198.77 38.204V23.74H195.503V38.204H198.77ZM197.136 25.3737H204.688V22.1063H197.136V25.3737ZM204.688 25.3737C207.15 25.3737 208.734 26.0426 209.693 26.9505C210.644 27.8507 211.183 29.1757 211.183 30.908H214.45C214.45 28.4803 213.676 26.2213 211.939 24.5775C210.211 22.9414 207.731 22.1063 204.688 22.1063V25.3737ZM211.183 30.908C211.183 32.6648 210.661 34.0282 209.724 34.9538C208.789 35.8776 207.232 36.5703 204.752 36.5703V39.8377C207.84 39.8377 210.316 38.9624 212.02 37.2782C213.723 35.5958 214.45 33.3112 214.45 30.908H211.183ZM204.752 36.5703H197.136V39.8377H204.752V36.5703ZM233.526 61.5H231.892V63.1337H233.526V61.5ZM241.334 61.5V63.1337H242.967V61.5H241.334ZM241.334 16.7H242.967V15.0663H241.334V16.7ZM233.526 16.7V15.0663H231.892V16.7H233.526ZM233.526 63.1337H241.334V59.8663H233.526V63.1337ZM242.967 61.5V16.7H239.7V61.5H242.967ZM241.334 15.0663H233.526V18.3337H241.334V15.0663ZM231.892 16.7V61.5H235.159V16.7H231.892ZM256.411 61.5H254.777V63.1337H256.411V61.5ZM284.571 61.5V63.1337H286.204V61.5H284.571ZM284.571 54.46H286.204V52.8263H284.571V54.46ZM264.219 54.46H262.585V56.0937H264.219V54.46ZM264.219 42.364V40.7303H262.585V42.364H264.219ZM281.883 42.364V43.9977H283.516V42.364H281.883ZM281.883 35.516H283.516V33.8823H281.883V35.516ZM264.219 35.516H262.585V37.1497H264.219V35.516ZM264.219 23.74V22.1063H262.585V23.74H264.219ZM284.571 23.74V25.3737H286.204V23.74H284.571ZM284.571 16.7H286.204V15.0663H284.571V16.7ZM256.411 16.7V15.0663H254.777V16.7H256.411ZM256.411 63.1337H284.571V59.8663H256.411V63.1337ZM286.204 61.5V54.46H282.937V61.5H286.204ZM284.571 52.8263H264.219V56.0937H284.571V52.8263ZM265.852 54.46V42.364H262.585V54.46H265.852ZM264.219 43.9977H281.883V40.7303H264.219V43.9977ZM283.516 42.364V35.516H280.249V42.364H283.516ZM281.883 33.8823H264.219V37.1497H281.883V33.8823ZM265.852 35.516V23.74H262.585V35.516H265.852ZM264.219 25.3737H284.571V22.1063H264.219V25.3737ZM286.204 23.74V16.7H282.937V23.74H286.204ZM284.571 15.0663H256.411V18.3337H284.571V15.0663ZM254.777 16.7V61.5H258.044V16.7H254.777ZM337.559 49.276L339.085 49.8601L339.697 48.2618L338.072 47.7248L337.559 49.276ZM330.199 46.844L330.712 45.2928L329.178 44.786L328.654 46.3142L330.199 46.844ZM330.263 32.124L328.701 32.6019L329.187 34.1912L330.768 33.6778L330.263 32.124ZM337.751 29.692L338.256 31.2458L339.815 30.7393L339.303 29.1819L337.751 29.692ZM317.911 63.9657C323.174 63.9657 327.638 62.6805 331.226 60.224C334.814 57.7676 337.418 54.2144 339.085 49.8601L336.034 48.6919C334.564 52.5296 332.336 55.5044 329.38 57.528C326.425 59.5515 322.632 60.6983 317.911 60.6983V63.9657ZM338.072 47.7248L330.712 45.2928L329.687 48.3952L337.047 50.8272L338.072 47.7248ZM328.654 46.3142C327.969 48.3112 326.823 50.099 325.142 51.3872C323.474 52.6652 321.177 53.5303 318.039 53.5303V56.7977C321.814 56.7977 324.829 55.7428 327.129 53.9808C329.415 52.229 330.893 49.8568 331.745 47.3738L328.654 46.3142ZM318.039 53.5303C310.66 53.5303 304.953 47.9035 304.953 39.1H301.686C301.686 49.4965 308.651 56.7977 318.039 56.7977V53.5303ZM304.953 39.1C304.953 30.6696 310.472 24.6057 317.847 24.6057V21.3383C308.326 21.3383 301.686 29.2264 301.686 39.1H304.953ZM317.847 24.6057C320.928 24.6057 323.246 25.4423 324.966 26.7929C326.697 28.1521 327.944 30.1279 328.701 32.6019L331.825 31.6461C330.918 28.6801 329.349 26.0799 326.984 24.2231C324.608 22.3577 321.551 21.3383 317.847 21.3383V24.6057ZM330.768 33.6778L338.256 31.2458L337.247 28.1382L329.759 30.5702L330.768 33.6778ZM339.303 29.1819C336.052 19.2908 327.886 14.1063 317.783 14.1063V17.3737C326.625 17.3737 333.434 21.7892 336.199 30.2021L339.303 29.1819ZM317.783 14.1063C303.75 14.1063 293.878 24.707 293.878 39.036H297.145C297.145 26.357 305.705 17.3737 317.783 17.3737V14.1063ZM293.878 39.036C293.878 46.4785 296.359 52.7317 300.673 57.1316C304.986 61.5318 311.021 63.9657 317.911 63.9657V60.6983C311.809 60.6983 306.644 58.5562 303.006 54.8444C299.367 51.1323 297.145 45.7375 297.145 39.036H293.878ZM350.743 61.5H349.11V63.1337H350.743V61.5ZM378.903 61.5V63.1337H380.537V61.5H378.903ZM378.903 54.46H380.537V52.8263H378.903V54.46ZM358.551 54.46H356.918V56.0937H358.551V54.46ZM358.551 42.364V40.7303H356.918V42.364H358.551ZM376.215 42.364V43.9977H377.849V42.364H376.215ZM376.215 35.516H377.849V33.8823H376.215V35.516ZM358.551 35.516H356.918V37.1497H358.551V35.516ZM358.551 23.74V22.1063H356.918V23.74H358.551ZM378.903 23.74V25.3737H380.537V23.74H378.903ZM378.903 16.7H380.537V15.0663H378.903V16.7ZM350.743 16.7V15.0663H349.11V16.7H350.743ZM350.743 63.1337H378.903V59.8663H350.743V63.1337ZM380.537 61.5V54.46H377.27V61.5H380.537ZM378.903 52.8263H358.551V56.0937H378.903V52.8263ZM360.185 54.46V42.364H356.918V54.46H360.185ZM358.551 43.9977H376.215V40.7303H358.551V43.9977ZM377.849 42.364V35.516H374.582V42.364H377.849ZM376.215 33.8823H358.551V37.1497H376.215V33.8823ZM360.185 35.516V23.74H356.918V35.516H360.185ZM358.551 25.3737H378.903V22.1063H358.551V25.3737ZM380.537 23.74V16.7H377.27V23.74H380.537ZM378.903 15.0663H350.743V18.3337H378.903V15.0663ZM349.11 16.7V61.5H352.377V16.7H349.11Z" fill="url(#paint1_linear_1348_34178)"/>
</g>
<path d="M46.1692 35.068L45.8327 36.6666L45.8408 36.6683L45.8489 36.6699L46.1692 35.068ZM53.1452 30.012L51.5657 30.4288L51.9891 32.0333L53.5868 31.5849L53.1452 30.012ZM60.4412 27.964L60.8828 29.5369L62.4111 29.1078L62.0261 27.5678L60.4412 27.964ZM44.7612 42.428L44.4663 44.0349L44.4782 44.037L44.7612 42.428ZM34.9692 47.484L36.5356 47.0199L36.0744 45.4634L34.515 45.9148L34.9692 47.484ZM27.6732 49.596L27.219 48.0268L25.69 48.4694L26.0927 50.0094L27.6732 49.596ZM44.8252 63.9657C49.7287 63.9657 54.2314 62.5708 57.5459 59.9691C60.8896 57.3445 62.9709 53.5228 62.9709 48.892H59.7036C59.7036 52.4532 58.1369 55.3515 55.5285 57.3989C52.8911 59.4692 49.1378 60.6983 44.8252 60.6983V63.9657ZM62.9709 48.892C62.9709 44.6244 61.5891 41.2091 58.6783 38.6228C55.8475 36.1074 51.7201 34.5122 46.4896 33.4661L45.8489 36.6699C50.8584 37.6718 54.315 39.1166 56.5081 41.0652C58.6214 42.9429 59.7036 45.4156 59.7036 48.892H62.9709ZM46.5058 33.4694C43.4493 32.8259 41.3404 32.2266 40.0026 31.4535C39.3623 31.0835 38.9798 30.7174 38.7516 30.3614C38.5333 30.0208 38.3949 29.5948 38.3949 28.988H35.1276C35.1276 30.1412 35.4052 31.1952 36.0008 32.1246C36.5867 33.0386 37.4162 33.7325 38.3678 34.2825C40.2141 35.3494 42.8092 36.0301 45.8327 36.6666L46.5058 33.4694ZM38.3949 28.988C38.3949 27.4043 38.9978 26.3538 39.9714 25.6442C41.0138 24.8846 42.6328 24.4137 44.7612 24.4137V21.1463C42.2177 21.1463 39.8367 21.6994 38.047 23.0038C36.1887 24.3582 35.1276 26.4117 35.1276 28.988H38.3949ZM44.7612 24.4137C46.9162 24.4137 48.2762 24.9769 49.2342 25.8657C50.2367 26.7957 50.9934 28.2605 51.5657 30.4288L54.7248 29.5952C54.081 27.1555 53.1098 25.0043 51.4563 23.4703C49.7583 21.8951 47.5343 21.1463 44.7612 21.1463V24.4137ZM53.5868 31.5849L60.8828 29.5369L59.9997 26.3911L52.7037 28.4391L53.5868 31.5849ZM62.0261 27.5678C60.9944 23.4409 58.9689 20.0481 55.9912 17.6911C53.0106 15.3319 49.1971 14.1063 44.7612 14.1063V17.3737C48.5814 17.3737 51.6478 18.4201 53.9633 20.2529C56.2816 22.0879 57.9681 24.8071 58.8564 28.3602L62.0261 27.5678ZM44.7612 14.1063C39.8101 14.1063 35.4658 15.5585 32.3289 18.183C29.1714 20.8249 27.3196 24.5932 27.3196 28.988H30.5869C30.5869 25.5748 31.9991 22.7191 34.4256 20.689C36.8727 18.6415 40.4324 17.3737 44.7612 17.3737V14.1063ZM27.3196 28.988C27.3196 33.3041 28.9534 36.6744 32.0396 39.1636C35.0389 41.5827 39.3055 43.0876 44.4663 44.0348L45.0562 40.8212C40.105 39.9124 36.4675 38.5373 34.0909 36.6204C31.8011 34.7736 30.5869 32.3519 30.5869 28.988H27.3196ZM44.4782 44.037C47.8418 44.6287 49.7 45.4309 50.7019 46.2517C51.5901 46.9794 51.8956 47.7928 51.8956 48.892H55.1629C55.1629 46.9832 54.5404 45.1726 52.7726 43.7243C51.1185 42.3691 48.5927 41.4433 45.0443 40.819L44.4782 44.037ZM51.8956 48.892C51.8956 50.4601 51.2529 51.5624 50.1415 52.3341C48.9612 53.1536 47.1499 53.6583 44.8252 53.6583V56.9257C47.5566 56.9257 50.0973 56.3424 52.0049 55.0179C53.9816 53.6456 55.1629 51.5479 55.1629 48.892H51.8956ZM44.8252 53.6583C42.2317 53.6583 40.5656 53.0655 39.385 52.0786C38.1756 51.0676 37.2602 49.4655 36.5356 47.0199L33.4029 47.9481C34.2143 50.6865 35.3789 52.9884 37.2895 54.5854C39.2288 56.2065 41.7227 56.9257 44.8252 56.9257V53.6583ZM34.515 45.9148L27.219 48.0268L28.1275 51.1652L35.4235 49.0532L34.515 45.9148ZM26.0927 50.0094C27.261 54.4761 29.5285 58.0022 32.7846 60.3996C36.0329 62.7911 40.1367 63.9657 44.8252 63.9657V60.6983C40.6818 60.6983 37.2976 59.6649 34.7218 57.7684C32.154 55.8778 30.2615 53.0359 29.2537 49.1826L26.0927 50.0094ZM74.1732 61.5H72.5396V63.1337H74.1732V61.5ZM81.9812 61.5V63.1337H83.6149V61.5H81.9812ZM81.9812 16.7H83.6149V15.0663H81.9812V16.7ZM74.1732 16.7V15.0663H72.5396V16.7H74.1732ZM74.1732 63.1337H81.9812V59.8663H74.1732V63.1337ZM83.6149 61.5V16.7H80.3476V61.5H83.6149ZM81.9812 15.0663H74.1732V18.3337H81.9812V15.0663ZM72.5396 16.7V61.5H75.8069V16.7H72.5396ZM97.0582 61.5H95.4246V63.1337H97.0582V61.5ZM97.0582 16.7V15.0663H95.4246V16.7H97.0582ZM104.866 54.46H103.233V56.0937H104.866V54.46ZM104.866 23.74V22.1063H103.233V23.74H104.866ZM97.0582 63.1337H112.802V59.8663H97.0582V63.1337ZM112.802 63.1337C119.678 63.1337 125.482 60.6387 129.56 56.308C133.629 51.9868 135.876 45.9507 135.876 39.036H132.609C132.609 45.2413 130.6 50.4372 127.181 54.068C123.771 57.6893 118.854 59.8663 112.802 59.8663V63.1337ZM135.876 39.036C135.876 32.5639 134.031 26.56 130.12 22.1519C126.183 17.7137 120.304 15.0663 112.61 15.0663V18.3337C119.508 18.3337 124.445 20.6782 127.676 24.3201C130.934 27.992 132.609 33.1561 132.609 39.036H135.876ZM112.61 15.0663H97.0582V18.3337H112.61V15.0663ZM95.4246 16.7V61.5H98.6919V16.7H95.4246ZM106.5 54.46V23.74H103.233V54.46H106.5ZM104.866 25.3737H111.97V22.1063H104.866V25.3737ZM111.97 25.3737C117.326 25.3737 120.406 27.0588 122.207 29.3812C124.071 31.7836 124.801 35.1635 124.801 38.972H128.068C128.068 34.8445 127.294 30.6084 124.789 27.3788C122.222 24.0692 118.07 22.1063 111.97 22.1063V25.3737ZM124.801 38.972C124.801 42.575 123.993 46.0592 122.113 48.6005C120.291 51.0631 117.329 52.8263 112.546 52.8263V56.0937C118.259 56.0937 122.241 53.9209 124.74 50.5435C127.18 47.2448 128.068 42.985 128.068 38.972H124.801ZM112.546 52.8263H104.866V56.0937H112.546V52.8263ZM147.881 61.5H146.247V63.1337H147.881V61.5ZM176.041 61.5V63.1337H177.674V61.5H176.041ZM176.041 54.46H177.674V52.8263H176.041V54.46ZM155.689 54.46H154.055V56.0937H155.689V54.46ZM155.689 42.364V40.7303H154.055V42.364H155.689ZM173.353 42.364V43.9977H174.986V42.364H173.353ZM173.353 35.516H174.986V33.8823H173.353V35.516ZM155.689 35.516H154.055V37.1497H155.689V35.516ZM155.689 23.74V22.1063H154.055V23.74H155.689ZM176.041 23.74V25.3737H177.674V23.74H176.041ZM176.041 16.7H177.674V15.0663H176.041V16.7ZM147.881 16.7V15.0663H146.247V16.7H147.881ZM147.881 63.1337H176.041V59.8663H147.881V63.1337ZM177.674 61.5V54.46H174.407V61.5H177.674ZM176.041 52.8263H155.689V56.0937H176.041V52.8263ZM157.322 54.46V42.364H154.055V54.46H157.322ZM155.689 43.9977H173.353V40.7303H155.689V43.9977ZM174.986 42.364V35.516H171.719V42.364H174.986ZM173.353 33.8823H155.689V37.1497H173.353V33.8823ZM157.322 35.516V23.74H154.055V35.516H157.322ZM155.689 25.3737H176.041V22.1063H155.689V25.3737ZM177.674 23.74V16.7H174.407V23.74H177.674ZM176.041 15.0663H147.881V18.3337H176.041V15.0663ZM146.247 16.7V61.5H149.514V16.7H146.247ZM189.328 61.5H187.695V63.1337H189.328V61.5ZM197.136 61.5V63.1337H198.77V61.5H197.136ZM197.136 45.244V43.6103H195.503V45.244H197.136ZM189.328 16.7V15.0663H187.695V16.7H189.328ZM197.136 38.204H195.503V39.8377H197.136V38.204ZM197.136 23.74V22.1063H195.503V23.74H197.136ZM189.328 63.1337H197.136V59.8663H189.328V63.1337ZM198.77 61.5V45.244H195.503V61.5H198.77ZM197.136 46.8777H205.712V43.6103H197.136V46.8777ZM205.712 46.8777C209.826 46.8777 213.954 45.652 217.082 42.9927C220.249 40.3007 222.258 36.2488 222.258 30.908H218.991C218.991 35.3592 217.352 38.4753 214.966 40.5033C212.542 42.564 209.214 43.6103 205.712 43.6103V46.8777ZM222.258 30.908C222.258 25.4571 220.292 21.4155 217.058 18.7713C213.875 16.1687 209.646 15.0663 205.328 15.0663V18.3337C209.139 18.3337 212.557 19.3113 214.99 21.3007C217.372 23.2485 218.991 26.3109 218.991 30.908H222.258ZM205.328 15.0663H189.328V18.3337H205.328V15.0663ZM187.695 16.7V61.5H190.962V16.7H187.695ZM198.77 38.204V23.74H195.503V38.204H198.77ZM197.136 25.3737H204.688V22.1063H197.136V25.3737ZM204.688 25.3737C207.15 25.3737 208.734 26.0426 209.693 26.9505C210.644 27.8507 211.183 29.1757 211.183 30.908H214.45C214.45 28.4803 213.676 26.2213 211.939 24.5775C210.211 22.9414 207.731 22.1063 204.688 22.1063V25.3737ZM211.183 30.908C211.183 32.6648 210.661 34.0282 209.724 34.9538C208.789 35.8776 207.232 36.5703 204.752 36.5703V39.8377C207.84 39.8377 210.316 38.9624 212.02 37.2782C213.723 35.5958 214.45 33.3112 214.45 30.908H211.183ZM204.752 36.5703H197.136V39.8377H204.752V36.5703ZM233.526 61.5H231.892V63.1337H233.526V61.5ZM241.334 61.5V63.1337H242.967V61.5H241.334ZM241.334 16.7H242.967V15.0663H241.334V16.7ZM233.526 16.7V15.0663H231.892V16.7H233.526ZM233.526 63.1337H241.334V59.8663H233.526V63.1337ZM242.967 61.5V16.7H239.7V61.5H242.967ZM241.334 15.0663H233.526V18.3337H241.334V15.0663ZM231.892 16.7V61.5H235.159V16.7H231.892ZM256.411 61.5H254.777V63.1337H256.411V61.5ZM284.571 61.5V63.1337H286.204V61.5H284.571ZM284.571 54.46H286.204V52.8263H284.571V54.46ZM264.219 54.46H262.585V56.0937H264.219V54.46ZM264.219 42.364V40.7303H262.585V42.364H264.219ZM281.883 42.364V43.9977H283.516V42.364H281.883ZM281.883 35.516H283.516V33.8823H281.883V35.516ZM264.219 35.516H262.585V37.1497H264.219V35.516ZM264.219 23.74V22.1063H262.585V23.74H264.219ZM284.571 23.74V25.3737H286.204V23.74H284.571ZM284.571 16.7H286.204V15.0663H284.571V16.7ZM256.411 16.7V15.0663H254.777V16.7H256.411ZM256.411 63.1337H284.571V59.8663H256.411V63.1337ZM286.204 61.5V54.46H282.937V61.5H286.204ZM284.571 52.8263H264.219V56.0937H284.571V52.8263ZM265.852 54.46V42.364H262.585V54.46H265.852ZM264.219 43.9977H281.883V40.7303H264.219V43.9977ZM283.516 42.364V35.516H280.249V42.364H283.516ZM281.883 33.8823H264.219V37.1497H281.883V33.8823ZM265.852 35.516V23.74H262.585V35.516H265.852ZM264.219 25.3737H284.571V22.1063H264.219V25.3737ZM286.204 23.74V16.7H282.937V23.74H286.204ZM284.571 15.0663H256.411V18.3337H284.571V15.0663ZM254.777 16.7V61.5H258.044V16.7H254.777ZM337.559 49.276L339.085 49.8601L339.697 48.2618L338.072 47.7248L337.559 49.276ZM330.199 46.844L330.712 45.2928L329.178 44.786L328.654 46.3142L330.199 46.844ZM330.263 32.124L328.701 32.6019L329.187 34.1912L330.768 33.6778L330.263 32.124ZM337.751 29.692L338.256 31.2458L339.815 30.7393L339.303 29.1819L337.751 29.692ZM317.911 63.9657C323.174 63.9657 327.638 62.6805 331.226 60.224C334.814 57.7676 337.418 54.2144 339.085 49.8601L336.034 48.6919C334.564 52.5296 332.336 55.5044 329.38 57.528C326.425 59.5515 322.632 60.6983 317.911 60.6983V63.9657ZM338.072 47.7248L330.712 45.2928L329.687 48.3952L337.047 50.8272L338.072 47.7248ZM328.654 46.3142C327.969 48.3112 326.823 50.099 325.142 51.3872C323.474 52.6652 321.177 53.5303 318.039 53.5303V56.7977C321.814 56.7977 324.829 55.7428 327.129 53.9808C329.415 52.229 330.893 49.8568 331.745 47.3738L328.654 46.3142ZM318.039 53.5303C310.66 53.5303 304.953 47.9035 304.953 39.1H301.686C301.686 49.4965 308.651 56.7977 318.039 56.7977V53.5303ZM304.953 39.1C304.953 30.6696 310.472 24.6057 317.847 24.6057V21.3383C308.326 21.3383 301.686 29.2264 301.686 39.1H304.953ZM317.847 24.6057C320.928 24.6057 323.246 25.4423 324.966 26.7929C326.697 28.1521 327.944 30.1279 328.701 32.6019L331.825 31.6461C330.918 28.6801 329.349 26.0799 326.984 24.2231C324.608 22.3577 321.551 21.3383 317.847 21.3383V24.6057ZM330.768 33.6778L338.256 31.2458L337.247 28.1382L329.759 30.5702L330.768 33.6778ZM339.303 29.1819C336.052 19.2908 327.886 14.1063 317.783 14.1063V17.3737C326.625 17.3737 333.434 21.7892 336.199 30.2021L339.303 29.1819ZM317.783 14.1063C303.75 14.1063 293.878 24.707 293.878 39.036H297.145C297.145 26.357 305.705 17.3737 317.783 17.3737V14.1063ZM293.878 39.036C293.878 46.4785 296.359 52.7317 300.673 57.1316C304.986 61.5318 311.021 63.9657 317.911 63.9657V60.6983C311.809 60.6983 306.644 58.5562 303.006 54.8444C299.367 51.1323 297.145 45.7375 297.145 39.036H293.878ZM350.743 61.5H349.11V63.1337H350.743V61.5ZM378.903 61.5V63.1337H380.537V61.5H378.903ZM378.903 54.46H380.537V52.8263H378.903V54.46ZM358.551 54.46H356.918V56.0937H358.551V54.46ZM358.551 42.364V40.7303H356.918V42.364H358.551ZM376.215 42.364V43.9977H377.849V42.364H376.215ZM376.215 35.516H377.849V33.8823H376.215V35.516ZM358.551 35.516H356.918V37.1497H358.551V35.516ZM358.551 23.74V22.1063H356.918V23.74H358.551ZM378.903 23.74V25.3737H380.537V23.74H378.903ZM378.903 16.7H380.537V15.0663H378.903V16.7ZM350.743 16.7V15.0663H349.11V16.7H350.743ZM350.743 63.1337H378.903V59.8663H350.743V63.1337ZM380.537 61.5V54.46H377.27V61.5H380.537ZM378.903 52.8263H358.551V56.0937H378.903V52.8263ZM360.185 54.46V42.364H356.918V54.46H360.185ZM358.551 43.9977H376.215V40.7303H358.551V43.9977ZM377.849 42.364V35.516H374.582V42.364H377.849ZM376.215 33.8823H358.551V37.1497H376.215V33.8823ZM360.185 35.516V23.74H356.918V35.516H360.185ZM358.551 25.3737H378.903V22.1063H358.551V25.3737ZM380.537 23.74V16.7H377.27V23.74H380.537ZM378.903 15.0663H350.743V18.3337H378.903V15.0663ZM349.11 16.7V61.5H352.377V16.7H349.11Z" fill="url(#paint2_linear_1348_34178)"/>
<defs>
<filter id="filter0_f_1348_34178" x="0.304418" y="0.220433" width="405.967" height="77.6314" filterUnits="userSpaceOnUse" color-interpolation-filters="sRGB">
<feFlood flood-opacity="0" result="BackgroundImageFix"/>
<feBlend mode="normal" in="SourceGraphic" in2="BackgroundImageFix" result="shape"/>
<feGaussianBlur stdDeviation="7.7599" result="effect1_foregroundBlur_1348_34178"/>
</filter>
<filter id="filter1_f_1348_34178" x="21.956" y="10.0224" width="362.664" height="58.0274" filterUnits="userSpaceOnUse" color-interpolation-filters="sRGB">
<feFlood flood-opacity="0" result="BackgroundImageFix"/>
<feBlend mode="normal" in="SourceGraphic" in2="BackgroundImageFix" result="shape"/>
<feGaussianBlur stdDeviation="2.85891" result="effect1_foregroundBlur_1348_34178"/>
</filter>
<linearGradient id="paint0_linear_1348_34178" x1="18.0277" y1="39.6313" x2="101.295" y2="208.654" gradientUnits="userSpaceOnUse">
<stop stop-color="#E90195"/>
<stop offset="0.770833" stop-color="#8001FF"/>
</linearGradient>
<linearGradient id="paint1_linear_1348_34178" x1="29.711" y1="39.6313" x2="116.228" y2="204.188" gradientUnits="userSpaceOnUse">
<stop stop-color="#E90195"/>
<stop offset="0.770833" stop-color="#8001FF"/>
</linearGradient>
<linearGradient id="paint2_linear_1348_34178" x1="29.711" y1="39.6313" x2="116.228" y2="204.188" gradientUnits="userSpaceOnUse">
<stop stop-color="#E90195"/>
<stop offset="0.770833" stop-color="#8001FF"/>
</linearGradient>
</defs>
</svg>
